<?xml version="1.0" encoding="UTF-8"?>
<svg xmlns="http://www.w3.org/2000/svg" xmlns:xlink="http://www.w3.org/1999/xlink" width="16px" height="16px" viewBox="0 0 16 16" version="1.1">
<g id="surface9399">
<path style=" stroke:none;fill-rule:nonzero;fill:rgb(23.921569%,21.960784%,27.450982%);fill-opacity:1;" d="M 7 6 C 6.449219 6 6 6.449219 6 7 L 6 12 C 6 12.550781 6.449219 13 7 13 L 15 13 C 15.550781 13 16 12.550781 16 12 L 16 7 C 16 6.449219 15.550781 6 15 6 Z M 8 8 L 14 8 L 14 11 L 8 11 Z M 8 8 "/>
<path style=" stroke:none;fill-rule:nonzero;fill:rgb(23.921569%,21.960784%,27.450982%);fill-opacity:1;" d="M 8 14 L 14 14 L 14 15 L 8 15 Z M 8 14 "/>
<path style=" stroke:none;fill-rule:nonzero;fill:rgb(23.921569%,21.960784%,27.450982%);fill-opacity:1;" d="M 4 3 C 3.449219 3 3 3.449219 3 4 L 3 9 C 3 9.550781 3.449219 10 4 10 L 5 10 L 5 5 L 13 5 L 13 4 C 13 3.449219 12.550781 3 12 3 Z M 4 3 "/>
<path style=" stroke:none;fill-rule:nonzero;fill:rgb(23.921569%,21.960784%,27.450982%);fill-opacity:1;" d="M 1 0 C 0.449219 0 0 0.449219 0 1 L 0 6 C 0 6.550781 0.449219 7 1 7 L 2 7 L 2 2 L 10 2 L 10 1 C 10 0.449219 9.550781 0 9 0 Z M 1 0 "/>
</g>
</svg>
