<?xml version="1.0" encoding="UTF-8"?>
<svg id="svg7384" width="16" height="16" style="enable-background:new" version="1.1" xmlns="http://www.w3.org/2000/svg" xmlns:cc="http://creativecommons.org/ns#" xmlns:dc="http://purl.org/dc/elements/1.1/" xmlns:rdf="http://www.w3.org/1999/02/22-rdf-syntax-ns#">
 <metadata id="metadata90">
  <rdf:RDF>
   <cc:Work rdf:about="">
    <dc:format>image/svg+xml</dc:format>
    <dc:type rdf:resource="http://purl.org/dc/dcmitype/StillImage"/>
    <dc:title>Gnome Symbolic Icons</dc:title>
    <cc:license rdf:resource="http://creativecommons.org/licenses/by-sa/4.0/"/>
   </cc:Work>
   <cc:License rdf:about="http://creativecommons.org/licenses/by-sa/4.0/">
    <cc:permits rdf:resource="http://creativecommons.org/ns#Reproduction"/>
    <cc:permits rdf:resource="http://creativecommons.org/ns#Distribution"/>
    <cc:requires rdf:resource="http://creativecommons.org/ns#Notice"/>
    <cc:requires rdf:resource="http://creativecommons.org/ns#Attribution"/>
    <cc:permits rdf:resource="http://creativecommons.org/ns#DerivativeWorks"/>
    <cc:requires rdf:resource="http://creativecommons.org/ns#ShareAlike"/>
   </cc:License>
  </rdf:RDF>
 </metadata>
 <title id="title8473">Gnome Symbolic Icons</title>
 <g id="layer3" transform="translate(-212 -668)">
  <path id="path901" d="m214 668v1h-1v1h-1v-2z" style="color:#000000;fill:#241f31;paint-order:normal"/>
  <path id="path903" d="m228 670h-1v-1h-1l-1e-5 -1 2-2e-5z" style="color:#000000;fill:#241f31;paint-order:normal"/>
  <path id="path905" d="m214 684v-0.99997l-1-3e-5v-0.99997l-1-3e-5v2z" style="color:#000000;fill:#241f31;paint-order:normal"/>
  <path id="path907" d="m228 682-1 3e-5v0.99997l-1 3e-5 -1e-5 0.99998 2 2e-5z" style="color:#000000;fill:#241f31;paint-order:normal"/>
  <path id="rect5238" d="m218 671c-0.54996 0-1 0.45004-1 1v1h-2c-0.55201 0-1 0.45004-1 1v6c0 0.54996 0.44799 1 1 1h10c0.55201 0 1-0.45004 1-1v-6c0-0.54996-0.44799-1-1-1h-2v-1c0-0.54996-0.45004-1-1-1zm2 2.4682c1.8125 0 3.2818 1.4693 3.2818 3.2818s-1.4693 3.2818-3.2818 3.2818-3.2818-1.4693-3.2818-3.2818 1.4693-3.2818 3.2818-3.2818zm0 1.2818c-1.1046 0-2 0.89543-2 2s0.89543 2 2 2 2-0.89543 2-2-0.89543-2-2-2z" style="color:#bebebe;enable-background:accumulate;fill:#241f31"/>
 </g>
</svg>
