<?xml version="1.0" encoding="UTF-8"?>
<!-- Created with Inkscape (http://www.inkscape.org/) -->
<svg id="svg36018" width="16" height="16" version="1.1" viewBox="0 0 16 16" xmlns="http://www.w3.org/2000/svg" xmlns:cc="http://creativecommons.org/ns#" xmlns:dc="http://purl.org/dc/elements/1.1/" xmlns:rdf="http://www.w3.org/1999/02/22-rdf-syntax-ns#">
 <metadata id="metadata36015">
  <rdf:RDF>
   <cc:Work rdf:about="">
    <dc:format>image/svg+xml</dc:format>
    <dc:type rdf:resource="http://purl.org/dc/dcmitype/StillImage"/>
    <dc:title/>
   </cc:Work>
  </rdf:RDF>
 </metadata>
 <g id="layer1" transform="translate(0 -292.77)">
  <g id="g833" transform="translate(2.5e-8 292.77)">
   <path id="path8" class="a" d="m6.692 13.645-4.2427-4.3213a0.33333 0.33333 0 0 1 0-0.47067l1.4307-1.4027a0.33333 0.33333 0 0 1 0.472 0l2.2853 2.332 8.08-8.708a3.9747 3.9747 0 0 0-2.7173-1.0747h-8a4 4 0 0 0-4 4v8a4 4 0 0 0 4 4h8a4 4 0 0 0 4-4v-8c0-0.11867-0.02533-0.22933-0.03467-0.34533z" style="fill:#888a85"/>
  </g>
 </g>
</svg>
