<?xml version="1.0" encoding="UTF-8"?>
<svg width="128px" height="128px" version="1.1" viewBox="0 0 128 128" xmlns="http://www.w3.org/2000/svg" xmlns:xlink="http://www.w3.org/1999/xlink">
 <defs>
  <linearGradient id="linear0" x1="62.816" x2="158.56" y1="414.08" y2="414.08" gradientTransform="translate(-42.443 -294.18)" gradientUnits="userSpaceOnUse">
   <stop style="stop-color:#fbf3aa" offset="0"/>
   <stop style="stop-color:#fbf5b4" offset=".062771"/>
   <stop style="stop-color:#f5e111" offset=".15558"/>
   <stop style="stop-color:#b1a208" offset=".28892"/>
   <stop style="stop-color:#2c9387" offset=".36688"/>
   <stop style="stop-color:#6ed2ca" offset=".65292"/>
   <stop style="stop-color:#2dc0af;stop-opacity:.96078" offset=".85208"/>
   <stop style="stop-color:#a2e9e1;stop-opacity:.96078" offset=".95771"/>
   <stop style="stop-color:#249d8f;stop-opacity:.96078" offset="1"/>
  </linearGradient>
  <linearGradient id="linear1" x1="32" x2="56" y1="239.25" y2="196" gradientTransform="translate(0 -172)" gradientUnits="userSpaceOnUse">
   <stop style="stop-color:#c061cb" offset="0"/>
   <stop style="stop-color:#8f58c8" offset="1"/>
  </linearGradient>
  <linearGradient id="linear2" x1="64" x2="80" y1="260" y2="220" gradientTransform="translate(0 -172)" gradientUnits="userSpaceOnUse">
   <stop style="stop-color:#2dc0af" offset="0"/>
   <stop style="stop-color:#3584e4" offset="1"/>
  </linearGradient>
  <filter id="alpha" x="0%" y="0%" width="100%" height="100%">
   <feColorMatrix in="SourceGraphic" values="0 0 0 0 1 0 0 0 0 1 0 0 0 0 1 0 0 0 1 0"/>
  </filter>
  <mask id="mask0">
   <g filter="url(#alpha)">
    <rect width="128" height="128" style="fill-opacity:.2"/>
   </g>
  </mask>
  <linearGradient id="linear3" x1="56" x2="0" y1="252" y2="244" gradientTransform="translate(8 -156)" gradientUnits="userSpaceOnUse">
   <stop style="stop-color:#fff" offset="0"/>
   <stop style="stop-color:#fff;stop-opacity:0" offset="1"/>
  </linearGradient>
  <clipPath id="clip1">
   <rect width="192" height="152"/>
  </clipPath>
  <g id="surface5497" clip-path="url(#clip1)">
   <path d="m28.016 42.629c-0.039063 12.109-0.003906 24.215-0.015625 36.32v0.074219 36.875c0 5.7188 3.0508 11 8 13.859 4.9492 2.8555 11.051 2.8555 16 0l32-18.477c4.9492-2.8594 8-8.1406 8-13.855 0-5.7188-3.0508-11-8-13.859l-32-18.473c-0.38281-0.21484-0.77344-0.41797-1.1758-0.60156-5.3906-3.1406-10.852-6.168-16.168-9.4297-3.9805-2.8281-6.4844-7.5586-6.6406-12.434z" style="fill-rule:evenodd;fill:url(#linear3)"/>
  </g>
  <linearGradient id="linear4" x1="529.29" x2="543.34" y1="441.73" y2="408.6" gradientTransform="matrix(-.5 -.86602 .86602 -.5 -2.3051 745.5)" gradientUnits="userSpaceOnUse">
   <stop style="stop-color:#2dc0af" offset="0"/>
   <stop style="stop-color:#5ed9cb" offset="1"/>
  </linearGradient>
  <linearGradient id="linear5" x1="529.29" x2="543.34" y1="441.73" y2="408.6" gradientTransform="translate(-504 -330)" gradientUnits="userSpaceOnUse">
   <stop style="stop-color:#f9ef6b" offset="0"/>
   <stop style="stop-color:#f5d32d" offset="1"/>
  </linearGradient>
 </defs>
 <g id="surface5465">
  <path d="m36.379 14.008c-4.3086-0.10156-8.4766 1.5391-11.559 4.5469-3.082 3.0117-4.8203 7.1367-4.8203 11.445v16.977c0 6.6562 0.007812 13.316 0 19.973v0.074219 16.414c0 6.8203 0.007812 13.641 0 20.461-0.03125 1.6211 0.23047 3.2109 0.71484 4.7227 0.003906 0.015625 0.007812 0.027344 0.011718 0.042968 0.13672 0.42188 0.28516 0.83984 0.46094 1.2539 0.14844 0.35547 0.30859 0.70703 0.48438 1.0547 0.015625 0.039063 0.035156 0.074219 0.054687 0.11328 0.074219 0.16406 0.15234 0.32422 0.23438 0.48828 0.51172 0.93359 1.1133 1.8164 1.8047 2.6367 1.1094 1.3086 2.4219 2.4297 3.8906 3.3242 0.38672 0.23828 0.78516 0.46484 1.1914 0.67188 1.7344 0.89062 3.6367 1.4531 5.6211 1.6055 0.058594 0.003906 0.12109 0.015625 0.18359 0.019531 0.24609 0.019531 0.49219 0.03125 0.73828 0.039063 0.35547 0.019531 0.71094 0.03125 1.0664 0.023437 0.027344-0.003906 0.050781-0.003906 0.078125-0.007812 0.44922-0.015625 0.89844-0.046875 1.3438-0.10547 2.1562-0.25391 4.2383-0.94141 6.1211-2.0234l0.26562-0.15234c0.58984-0.31641 1.1719-0.64844 1.7344-1.0039h0.003906l29.996-17.32 32-18.477c5.2422-3.0273 8.3242-8.7539 7.9688-14.801-0.09375-2.0312-0.57422-4.043-1.4961-5.9062-0.67578-1.5391-1.6367-2.875-2.7734-4.0586-0.050781-0.050781-0.10156-0.10156-0.14844-0.15234-0.26172-0.26172-0.51953-0.51953-0.79688-0.76562-0.22656-0.20312-0.45703-0.39844-0.69141-0.58594-0.17188-0.14062-0.34766-0.27734-0.52344-0.41406-0.15234-0.11328-0.30469-0.22656-0.46094-0.33594-0.98047-0.70703-2.0156-1.3398-3.0781-1.9023-0.082031-0.03125-0.16406-0.058593-0.24609-0.089843l-61.754-35.648c-2.3203-1.3398-4.9414-2.0742-7.6211-2.1367z" style="fill-rule:evenodd;fill:url(#linear0)"/>
  <path d="m36.375 46.953c-4.3047-0.097656-8.4727 1.543-11.555 4.5508-3.082 3.0117-4.8203 7.1367-4.8203 11.445v36.949c0 5.7188 3.0508 11 8 13.859 4.9492 2.8555 11.051 2.8555 16 0l32-18.477c4.9492-2.8594 8-8.1406 8-13.855 0-5.7188-3.0508-11-8-13.859l-32-18.473c-2.3203-1.3398-4.9414-2.0742-7.625-2.1406z" style="fill-rule:evenodd;fill:#2dc0af"/>
  <path d="m36.375 10.004c-4.3047-0.097656-8.4727 1.5391-11.555 4.5508-3.082 3.0117-4.8203 7.1367-4.8203 11.445v73.898h32v-46.188l40 23.094 16-27.711-64-36.949c-2.3203-1.3398-4.9414-2.0742-7.625-2.1406z" style="fill-rule:evenodd;fill:url(#linear1)"/>
  <path d="m68.375 28.48c-4.3047-0.10156-8.4727 1.5391-11.555 4.5508-3.082 3.0078-4.8203 7.1367-4.8203 11.441v36.953c0 5.7148 3.0508 10.996 8 13.855 4.9531 2.8555 11.051 2.8555 16 0l32-18.477c4.9492-2.8555 8-8.1367 8-13.855 0-5.7148-3.0508-10.996-8-13.855l-32-18.477c-2.3203-1.3398-4.9414-2.0742-7.625-2.1367z" style="fill-rule:evenodd;fill:url(#linear2)"/>
  <use transform="translate(-8 -16)" mask="url(#mask0)" xlink:href="#surface5497"/>
  <path d="m75.613 95.43c10.812-6.1914 21.59-12.457 32.387-18.676 7.0469-3.8984 10.059-13.434 6.4727-20.656-1.6406-3.7422-4.9375-6.3516-8.4727-8.2148-8.5391-3.3516-19.516 1.8125-21.504 11.109-0.57812 1.25-0.50781 2.5586-0.49609 3.957-0.046875 6.6719 0.097656 13.352-0.082031 20.02-0.48828 5.1953-3.6992 10.008-8.3047 12.461z" style="fill-rule:evenodd;fill:url(#linear4)"/>
  <path d="m20.02 62.516c-0.046875 12.461-0.007812 24.922-0.019531 37.383-0.14844 8.0547 6.6016 15.43 14.652 15.934 4.0625 0.45312 7.9688-1.0977 11.348-3.2305 7.1758-5.7188 8.1914-17.805 1.1328-24.172-0.79297-1.1328-1.9648-1.7227-3.1797-2.4141-5.7539-3.375-11.609-6.5898-17.297-10.078-4.25-3.0234-6.8164-8.207-6.6367-13.422z" style="fill-rule:evenodd;fill:url(#linear5)"/>
 </g>
</svg>
