<?xml version="1.0" encoding="UTF-8"?>
<svg width="128px" height="128px" viewBox="0 0 128 128" xmlns="http://www.w3.org/2000/svg">
 <linearGradient id="a" x1="10.276" x2="426.28" y1="260" y2="260" gradientTransform="matrix(.19235 0 0 .25 22.005 57)" gradientUnits="userSpaceOnUse">
  <stop stop-color="#9a9996" offset="0"/>
  <stop stop-color="#c0bfbc" offset=".050216"/>
  <stop stop-color="#9a9996" offset=".1002"/>
  <stop stop-color="#9a9996" offset=".90002"/>
  <stop stop-color="#c0bfbc" offset=".95001"/>
  <stop stop-color="#9a9996" offset="1"/>
 </linearGradient>
 <clipPath id="b">
  <rect width="128" height="128"/>
 </clipPath>
 <clipPath id="c">
  <rect width="128" height="128"/>
 </clipPath>
 <filter id="d" x="0%" y="0%" width="100%" height="100%">
  <feColorMatrix in="SourceGraphic" values="0 0 0 0 1 0 0 0 0 1 0 0 0 0 1 0 0 0 1 0"/>
 </filter>
 <mask id="e">
  <g clip-path="url(#c)" filter="url(#d)">
   <g clip-path="url(#b)">
    <path d="m32 36h64c4.418 0 8 3.582 8 8v68c0 4.418-3.582 8-8 8h-64c-4.418 0-8-3.582-8-8v-68c0-4.418 3.582-8 8-8z" fill="url(#a)"/>
    <path d="m32 8h64c4.418 0 8 3.582 8 8v90c0 4.418-3.582 8-8 8h-64c-4.418 0-8-3.582-8-8v-90c0-4.418 3.582-8 8-8z" fill="#deddda"/>
    <path d="m38 18h52.039c2.2109 0 4 1.7891 4 4v6c0 2.2109-1.7891 4-4 4h-52.039c-2.2109 0-4-1.7891-4-4v-6c0-2.2109 1.7891-4 4-4z" fill="#77767b"/>
    <path d="m38 36h52.039c2.2109 0 4-1.7891 4-4v-8c0-2.2109-1.7891-4-4-4h-52.039c-2.2109 0-4 1.7891-4 4v8c0 2.2109 1.7891 4 4 4z" fill="#6fb182"/>
    <path d="m34 51v2c0 3.8789 3.1211 7 7 7s7-3.1211 7-7v-2z" fill="#5e5c64"/>
    <path d="m41 44c3.8672 0 7 3.1328 7 7s-3.1328 7-7 7-7-3.1328-7-7 3.1328-7 7-7z" fill="#9a9996"/>
    <path d="m57.012 51v2c0 3.8789 3.1211 7 7 7 3.875 0 7-3.1211 7-7v-2z" fill="#5e5c64"/>
    <path d="m64 44c3.8672 0 7 3.1328 7 7s-3.1328 7-7 7-7-3.1328-7-7 3.1328-7 7-7z" fill="#9a9996"/>
    <path d="m80 51v2c0 3.8789 3.1211 7 7 7s7-3.1211 7-7v-2z" fill="#5e5c64"/>
    <path d="m87 44c3.8672 0 7 3.1328 7 7s-3.1328 7-7 7-7-3.1328-7-7 3.1328-7 7-7z" fill="#9a9996"/>
    <path d="m34 73v2c0 3.8789 3.1211 7 7 7s7-3.1211 7-7v-2z" fill="#3d3846"/>
    <path d="m57.012 73v2c0 3.8789 3.1211 7 7 7 3.875 0 7-3.1211 7-7v-2z" fill="#3d3846"/>
    <path d="m41 66c3.8672 0 7 3.1328 7 7s-3.1328 7-7 7-7-3.1328-7-7 3.1328-7 7-7z" fill="#5e5c64"/>
    <path d="m64 66c3.8672 0 7 3.1328 7 7s-3.1328 7-7 7-7-3.1328-7-7 3.1328-7 7-7z" fill="#5e5c64"/>
    <path d="m34 95v2c0 3.8789 3.1211 7 7 7s7-3.1211 7-7v-2z" fill="#3d3846"/>
    <path d="m41 88c3.8672 0 7 3.1328 7 7s-3.1328 7-7 7-7-3.1328-7-7 3.1328-7 7-7z" fill="#5e5c64"/>
    <path d="m57.012 95v2c0 3.8789 3.1211 7 7 7 3.875 0 7-3.1211 7-7v-2z" fill="#3d3846"/>
    <path d="m64 88c3.8672 0 7 3.1328 7 7s-3.1328 7-7 7-7-3.1328-7-7 3.1328-7 7-7z" fill="#5e5c64"/>
    <path d="m87 86c3.8672 0 7 3.1328 7 7v4c0 3.8672-3.1328 7-7 7s-7-3.1328-7-7v-4c0-3.8672 3.1328-7 7-7z" fill="#c64600"/>
    <path d="m87 66c3.8672 0 7 3.1328 7 7v22c0 3.8672-3.1328 7-7 7s-7-3.1328-7-7v-22c0-3.8672 3.1328-7 7-7z" fill="#ff7800"/>
   </g>
  </g>
 </mask>
 <mask id="f">
  <g filter="url(#d)">
   <rect width="128" height="128" fill-opacity=".8"/>
  </g>
 </mask>
 <linearGradient id="g" x1="300" x2="428" y1="235" y2="235" gradientTransform="matrix(0 .37 -.98462 0 295.39 -30.36)" gradientUnits="userSpaceOnUse">
  <stop stop-color="#f9f06b" offset="0"/>
  <stop stop-color="#f5c211" offset="1"/>
 </linearGradient>
 <clipPath id="h">
  <rect width="128" height="128"/>
 </clipPath>
 <clipPath id="i">
  <rect width="128" height="128"/>
 </clipPath>
 <path d="m32 36h64c4.418 0 8 3.582 8 8v68c0 4.418-3.582 8-8 8h-64c-4.418 0-8-3.582-8-8v-68c0-4.418 3.582-8 8-8z" fill="url(#a)"/>
 <path d="m32 8h64c4.418 0 8 3.582 8 8v90c0 4.418-3.582 8-8 8h-64c-4.418 0-8-3.582-8-8v-90c0-4.418 3.582-8 8-8z" fill="#deddda"/>
 <path d="m38 18h52.039c2.2109 0 4 1.7891 4 4v6c0 2.2109-1.7891 4-4 4h-52.039c-2.2109 0-4-1.7891-4-4v-6c0-2.2109 1.7891-4 4-4z" fill="#77767b"/>
 <path d="m38 36h52.039c2.2109 0 4-1.7891 4-4v-8c0-2.2109-1.7891-4-4-4h-52.039c-2.2109 0-4 1.7891-4 4v8c0 2.2109 1.7891 4 4 4z" fill="#6fb182"/>
 <path d="m34 51v2c0 3.8789 3.1211 7 7 7s7-3.1211 7-7v-2z" fill="#5e5c64"/>
 <path d="m41 44c3.8672 0 7 3.1328 7 7s-3.1328 7-7 7-7-3.1328-7-7 3.1328-7 7-7z" fill="#9a9996"/>
 <path d="m57.012 51v2c0 3.8789 3.1211 7 7 7 3.875 0 7-3.1211 7-7v-2z" fill="#5e5c64"/>
 <path d="m64 44c3.8672 0 7 3.1328 7 7s-3.1328 7-7 7-7-3.1328-7-7 3.1328-7 7-7z" fill="#9a9996"/>
 <path d="m80 51v2c0 3.8789 3.1211 7 7 7s7-3.1211 7-7v-2z" fill="#5e5c64"/>
 <path d="m87 44c3.8672 0 7 3.1328 7 7s-3.1328 7-7 7-7-3.1328-7-7 3.1328-7 7-7z" fill="#9a9996"/>
 <path d="m34 73v2c0 3.8789 3.1211 7 7 7s7-3.1211 7-7v-2z" fill="#3d3846"/>
 <path d="m57.012 73v2c0 3.8789 3.1211 7 7 7 3.875 0 7-3.1211 7-7v-2z" fill="#3d3846"/>
 <path d="m41 66c3.8672 0 7 3.1328 7 7s-3.1328 7-7 7-7-3.1328-7-7 3.1328-7 7-7z" fill="#5e5c64"/>
 <path d="m64 66c3.8672 0 7 3.1328 7 7s-3.1328 7-7 7-7-3.1328-7-7 3.1328-7 7-7z" fill="#5e5c64"/>
 <path d="m34 95v2c0 3.8789 3.1211 7 7 7s7-3.1211 7-7v-2z" fill="#3d3846"/>
 <path d="m41 88c3.8672 0 7 3.1328 7 7s-3.1328 7-7 7-7-3.1328-7-7 3.1328-7 7-7z" fill="#5e5c64"/>
 <path d="m57.012 95v2c0 3.8789 3.1211 7 7 7 3.875 0 7-3.1211 7-7v-2z" fill="#3d3846"/>
 <path d="m64 88c3.8672 0 7 3.1328 7 7s-3.1328 7-7 7-7-3.1328-7-7 3.1328-7 7-7z" fill="#5e5c64"/>
 <path d="m87 86c3.8672 0 7 3.1328 7 7v4c0 3.8672-3.1328 7-7 7s-7-3.1328-7-7v-4c0-3.8672 3.1328-7 7-7z" fill="#c64600"/>
 <path d="m87 66c3.8672 0 7 3.1328 7 7v22c0 3.8672-3.1328 7-7 7s-7-3.1328-7-7v-22c0-3.8672 3.1328-7 7-7z" fill="#ff7800"/>
 <g clip-path="url(#i)" mask="url(#e)">
  <g clip-path="url(#h)" mask="url(#f)">
   <path d="m128 80.641v47.359h-128v-47.359z" fill="url(#g)"/>
   <path d="m13.309 80.641 47.355 47.359h21.215l-47.359-47.359zm42.422 0 47.363 47.359h21.215l-47.363-47.359zm42.43 0 29.84 29.84v-21.211l-8.6289-8.6289zm-98.16 7.9062v21.215l18.238 18.238h21.215z"/>
  </g>
 </g>
</svg>
