<?xml version="1.0" encoding="UTF-8"?>
<svg xmlns="http://www.w3.org/2000/svg" xmlns:xlink="http://www.w3.org/1999/xlink" width="128px" height="128px" viewBox="0 0 128 128" version="1.1">
<defs>
<linearGradient id="linear0" gradientUnits="userSpaceOnUse" x1="42" y1="290" x2="42" y2="263.999969" gradientTransform="matrix(0.4,0,0,1,18.400005,-207.999995)">
<stop offset="0" style="stop-color:rgb(75.294119%,74.901962%,73.725492%);stop-opacity:1;"/>
<stop offset="1" style="stop-color:rgb(96.470588%,96.078432%,95.686275%);stop-opacity:1;"/>
</linearGradient>
<linearGradient id="linear1" gradientUnits="userSpaceOnUse" x1="66" y1="284" x2="66" y2="288" gradientTransform="matrix(1,0,0,1,-9.999996,-204.000005)">
<stop offset="0" style="stop-color:rgb(87.058824%,86.666667%,85.490197%);stop-opacity:1;"/>
<stop offset="1" style="stop-color:rgb(60.392159%,60.000002%,58.823532%);stop-opacity:1;"/>
</linearGradient>
<linearGradient id="linear2" gradientUnits="userSpaceOnUse" x1="47.999996" y1="90.85717" x2="463.999969" y2="90.85717" gradientTransform="matrix(0.192308,0,0,0.0744681,-5.230776,45.234039)">
<stop offset="0" style="stop-color:rgb(75.294119%,74.901962%,73.725492%);stop-opacity:1;"/>
<stop offset="0.0500001" style="stop-color:rgb(96.470588%,96.078432%,95.686275%);stop-opacity:1;"/>
<stop offset="0.1" style="stop-color:rgb(75.294119%,74.901962%,73.725492%);stop-opacity:1;"/>
<stop offset="0.9" style="stop-color:rgb(87.058824%,86.666667%,85.490197%);stop-opacity:1;"/>
<stop offset="0.95" style="stop-color:rgb(96.470588%,96.078432%,95.686275%);stop-opacity:1;"/>
<stop offset="1" style="stop-color:rgb(75.294119%,74.901962%,73.725492%);stop-opacity:1;"/>
</linearGradient>
<linearGradient id="linear3" gradientUnits="userSpaceOnUse" x1="-114" y1="-246" x2="-47.000008" y2="-246" gradientTransform="matrix(1,0,0,-1,125.000015,-212)">
<stop offset="0" style="stop-color:rgb(49.803922%,35.686275%,88.235295%);stop-opacity:1;"/>
<stop offset="1" style="stop-color:rgb(56.470591%,83.137256%,100%);stop-opacity:1;"/>
</linearGradient>
<clipPath id="clip1">
  <path d="M 11 35 L 78 35 L 78 54 L 11 54 Z M 11 35 "/>
</clipPath>
<clipPath id="clip2">
  <path d="M 13 54 L 76 54 C 77.105469 54 78 53.105469 78 52 L 78 16 C 78 14.894531 77.105469 14 76 14 L 13 14 C 11.894531 14 11 14.894531 11 16 L 11 52 C 11 53.105469 11.894531 54 13 54 Z M 13 54 "/>
</clipPath>
<linearGradient id="linear4" gradientUnits="userSpaceOnUse" x1="42" y1="290" x2="42" y2="263.999969" gradientTransform="matrix(0.4,0,0,1,38.400005,-191.999995)">
<stop offset="0" style="stop-color:rgb(75.294119%,74.901962%,73.725492%);stop-opacity:1;"/>
<stop offset="1" style="stop-color:rgb(96.470588%,96.078432%,95.686275%);stop-opacity:1;"/>
</linearGradient>
<linearGradient id="linear5" gradientUnits="userSpaceOnUse" x1="66" y1="284" x2="66" y2="288" gradientTransform="matrix(1,0,0,1,10.000004,-188.000005)">
<stop offset="0" style="stop-color:rgb(87.058824%,86.666667%,85.490197%);stop-opacity:1;"/>
<stop offset="1" style="stop-color:rgb(60.392159%,60.000002%,58.823532%);stop-opacity:1;"/>
</linearGradient>
<linearGradient id="linear6" gradientUnits="userSpaceOnUse" x1="47.999996" y1="90.85717" x2="463.999969" y2="90.85717" gradientTransform="matrix(0.192308,0,0,0.0744681,14.769224,61.234039)">
<stop offset="0" style="stop-color:rgb(75.294119%,74.901962%,73.725492%);stop-opacity:1;"/>
<stop offset="0.0500001" style="stop-color:rgb(96.470588%,96.078432%,95.686275%);stop-opacity:1;"/>
<stop offset="0.1" style="stop-color:rgb(75.294119%,74.901962%,73.725492%);stop-opacity:1;"/>
<stop offset="0.9" style="stop-color:rgb(87.058824%,86.666667%,85.490197%);stop-opacity:1;"/>
<stop offset="0.95" style="stop-color:rgb(96.470588%,96.078432%,95.686275%);stop-opacity:1;"/>
<stop offset="1" style="stop-color:rgb(75.294119%,74.901962%,73.725492%);stop-opacity:1;"/>
</linearGradient>
<linearGradient id="linear7" gradientUnits="userSpaceOnUse" x1="-114" y1="-246" x2="-47.000008" y2="-246" gradientTransform="matrix(-1,0,0,-1,-16,-196)">
<stop offset="0" style="stop-color:rgb(96.470588%,17.647059%,57.647061%);stop-opacity:1;"/>
<stop offset="1" style="stop-color:rgb(97.254902%,89.411765%,36.078432%);stop-opacity:1;"/>
</linearGradient>
<clipPath id="clip3">
  <path d="M 31 35 L 98 35 L 98 70 L 31 70 Z M 31 35 "/>
</clipPath>
<clipPath id="clip4">
  <path d="M 96 70 L 33 70 C 31.894531 70 31 69.105469 31 68 L 31 32 C 31 30.894531 31.894531 30 33 30 L 96 30 C 97.105469 30 98 30.894531 98 32 L 98 68 C 98 69.105469 97.105469 70 96 70 Z M 96 70 "/>
</clipPath>
<linearGradient id="linear8" gradientUnits="userSpaceOnUse" x1="42" y1="290" x2="42" y2="263.999969" gradientTransform="matrix(0.4,0,0,1,58.400005,-175.999995)">
<stop offset="0" style="stop-color:rgb(60.392159%,60.000002%,58.823532%);stop-opacity:1;"/>
<stop offset="1" style="stop-color:rgb(75.294119%,74.901962%,73.725492%);stop-opacity:1;"/>
</linearGradient>
<linearGradient id="linear9" gradientUnits="userSpaceOnUse" x1="66" y1="284" x2="66" y2="288" gradientTransform="matrix(1,0,0,1,30.000004,-172.000005)">
<stop offset="0" style="stop-color:rgb(87.058824%,86.666667%,85.490197%);stop-opacity:1;"/>
<stop offset="1" style="stop-color:rgb(60.392159%,60.000002%,58.823532%);stop-opacity:1;"/>
</linearGradient>
<linearGradient id="linear10" gradientUnits="userSpaceOnUse" x1="47.999996" y1="90.85717" x2="463.999969" y2="90.85717" gradientTransform="matrix(0.192308,0,0,0.0744681,34.769224,77.234039)">
<stop offset="0" style="stop-color:rgb(75.294119%,74.901962%,73.725492%);stop-opacity:1;"/>
<stop offset="0.0500001" style="stop-color:rgb(96.470588%,96.078432%,95.686275%);stop-opacity:1;"/>
<stop offset="0.1" style="stop-color:rgb(75.294119%,74.901962%,73.725492%);stop-opacity:1;"/>
<stop offset="0.9" style="stop-color:rgb(87.058824%,86.666667%,85.490197%);stop-opacity:1;"/>
<stop offset="0.95" style="stop-color:rgb(96.470588%,96.078432%,95.686275%);stop-opacity:1;"/>
<stop offset="1" style="stop-color:rgb(75.294119%,74.901962%,73.725492%);stop-opacity:1;"/>
</linearGradient>
<linearGradient id="linear11" gradientUnits="userSpaceOnUse" x1="-114" y1="-246" x2="-47.000008" y2="-246" gradientTransform="matrix(-1,0,0,-1,4,-180)">
<stop offset="0" style="stop-color:rgb(22.745098%,94.901961%,74.509805%);stop-opacity:1;"/>
<stop offset="1" style="stop-color:rgb(10.980392%,49.411765%,97.647059%);stop-opacity:1;"/>
</linearGradient>
<clipPath id="clip5">
  <path d="M 51 46 L 118 46 L 118 86 L 51 86 Z M 51 46 "/>
</clipPath>
<clipPath id="clip6">
  <path d="M -20.335938 52.539062 C 52.078125 -7.5 81.734375 112 136.539062 68.460938 L 136.539062 122.765625 L -22.363281 122.765625 Z M -20.335938 52.539062 "/>
</clipPath>
</defs>
<g id="surface9367">
<path style=" stroke:none;fill-rule:nonzero;fill:url(#linear0);" d="M 32 56 L 56 56 L 56 82 L 32 82 Z M 32 56 "/>
<path style=" stroke:none;fill-rule:nonzero;fill:url(#linear1);" d="M 28 80 L 60.0625 80 C 62 80 64 82 64 84 L 24 84 C 24 82 26 80 28 80 Z M 28 80 "/>
<path style=" stroke:none;fill-rule:nonzero;fill:rgb(0%,0%,0%);fill-opacity:0.3;" d="M 32 64 L 56 64 L 56 66 L 32 66 Z M 32 64 "/>
<path style=" stroke:none;fill-rule:nonzero;fill:url(#linear2);" d="M 12 36 L 76 36 C 80.417969 36 84 39.582031 84 44 L 84 56 C 84 60.417969 80.417969 64 76 64 L 12 64 C 7.582031 64 4 60.417969 4 56 L 4 44 C 4 39.582031 7.582031 36 12 36 Z M 12 36 "/>
<path style=" stroke:none;fill-rule:nonzero;fill:rgb(96.470588%,96.078432%,95.686275%);fill-opacity:1;" d="M 12 8 L 76 8 C 80.417969 8 84 11.582031 84 16 L 84 52 C 84 56.417969 80.417969 60 76 60 L 12 60 C 7.582031 60 4 56.417969 4 52 L 4 16 C 4 11.582031 7.582031 8 12 8 Z M 12 8 "/>
<path style=" stroke:none;fill-rule:nonzero;fill:rgb(14.117648%,12.156863%,19.215687%);fill-opacity:1;" d="M 13.363281 56 L 75.636719 56 C 78.046875 56 80 54.210938 80 52 L 80 16 C 80 13.789062 78.046875 12 75.636719 12 L 13.363281 12 C 10.953125 12 9 13.789062 9 16 L 9 52 C 9 54.210938 10.953125 56 13.363281 56 Z M 13.363281 56 "/>
<path style=" stroke:none;fill-rule:nonzero;fill:url(#linear3);" d="M 13 54 L 76 54 C 77.105469 54 78 53.105469 78 52 L 78 16 C 78 14.894531 77.105469 14 76 14 L 13 14 C 11.894531 14 11 14.894531 11 16 L 11 52 C 11 53.105469 11.894531 54 13 54 Z M 13 54 "/>
<g clip-path="url(#clip1)" clip-rule="nonzero">
<g clip-path="url(#clip2)" clip-rule="nonzero">
<path style=" stroke:none;fill-rule:nonzero;fill:rgb(9.803922%,18.039216%,74.509805%);fill-opacity:0.482477;" d="M -20.335938 52.539062 C 52.078125 -7.5 81.734375 112 136.539062 68.460938 L 136.539062 122.765625 L -22.363281 122.765625 Z M -20.335938 52.539062 "/>
</g>
</g>
<path style=" stroke:none;fill-rule:nonzero;fill:url(#linear4);" d="M 52 72 L 76 72 L 76 98 L 52 98 Z M 52 72 "/>
<path style=" stroke:none;fill-rule:nonzero;fill:url(#linear5);" d="M 48 96 L 80.0625 96 C 82 96 84 98 84 100 L 44 100 C 44 98 46 96 48 96 Z M 48 96 "/>
<path style=" stroke:none;fill-rule:nonzero;fill:rgb(0%,0%,0%);fill-opacity:0.3;" d="M 52 80 L 76 80 L 76 82 L 52 82 Z M 52 80 "/>
<path style=" stroke:none;fill-rule:nonzero;fill:url(#linear6);" d="M 32 52 L 96 52 C 100.417969 52 104 55.582031 104 60 L 104 72 C 104 76.417969 100.417969 80 96 80 L 32 80 C 27.582031 80 24 76.417969 24 72 L 24 60 C 24 55.582031 27.582031 52 32 52 Z M 32 52 "/>
<path style=" stroke:none;fill-rule:nonzero;fill:rgb(96.470588%,96.078432%,95.686275%);fill-opacity:1;" d="M 32 24 L 96 24 C 100.417969 24 104 27.582031 104 32 L 104 68 C 104 72.417969 100.417969 76 96 76 L 32 76 C 27.582031 76 24 72.417969 24 68 L 24 32 C 24 27.582031 27.582031 24 32 24 Z M 32 24 "/>
<path style=" stroke:none;fill-rule:nonzero;fill:rgb(14.117648%,12.156863%,19.215687%);fill-opacity:1;" d="M 33.363281 72 L 95.636719 72 C 98.046875 72 100 70.210938 100 68 L 100 32 C 100 29.789062 98.046875 28 95.636719 28 L 33.363281 28 C 30.953125 28 29 29.789062 29 32 L 29 68 C 29 70.210938 30.953125 72 33.363281 72 Z M 33.363281 72 "/>
<path style=" stroke:none;fill-rule:nonzero;fill:url(#linear7);" d="M 96 70 L 33 70 C 31.894531 70 31 69.105469 31 68 L 31 32 C 31 30.894531 31.894531 30 33 30 L 96 30 C 97.105469 30 98 30.894531 98 32 L 98 68 C 98 69.105469 97.105469 70 96 70 Z M 96 70 "/>
<g clip-path="url(#clip3)" clip-rule="nonzero">
<g clip-path="url(#clip4)" clip-rule="nonzero">
<path style=" stroke:none;fill-rule:nonzero;fill:rgb(97.254902%,4.705882%,41.176471%);fill-opacity:0.482477;" d="M -20.335938 52.539062 C 52.078125 -7.5 81.734375 112 136.539062 68.460938 L 136.539062 122.765625 L -22.363281 122.765625 Z M -20.335938 52.539062 "/>
</g>
</g>
<path style=" stroke:none;fill-rule:nonzero;fill:url(#linear8);" d="M 72 88 L 96 88 L 96 114 L 72 114 Z M 72 88 "/>
<path style=" stroke:none;fill-rule:nonzero;fill:url(#linear9);" d="M 68 112 L 100.0625 112 C 102 112 104 114 104 116 L 64 116 C 64 114 66 112 68 112 Z M 68 112 "/>
<path style=" stroke:none;fill-rule:nonzero;fill:rgb(23.921569%,21.960784%,27.450982%);fill-opacity:0.3;" d="M 72 96 L 96 96 L 96 98 L 72 98 Z M 72 96 "/>
<path style=" stroke:none;fill-rule:nonzero;fill:url(#linear10);" d="M 52 68 L 116 68 C 120.417969 68 124 71.582031 124 76 L 124 88 C 124 92.417969 120.417969 96 116 96 L 52 96 C 47.582031 96 44 92.417969 44 88 L 44 76 C 44 71.582031 47.582031 68 52 68 Z M 52 68 "/>
<path style=" stroke:none;fill-rule:nonzero;fill:rgb(96.470588%,96.078432%,95.686275%);fill-opacity:1;" d="M 52 40 L 116 40 C 120.417969 40 124 43.582031 124 48 L 124 84 C 124 88.417969 120.417969 92 116 92 L 52 92 C 47.582031 92 44 88.417969 44 84 L 44 48 C 44 43.582031 47.582031 40 52 40 Z M 52 40 "/>
<path style=" stroke:none;fill-rule:nonzero;fill:rgb(14.117648%,12.156863%,19.215687%);fill-opacity:1;" d="M 53.363281 88 L 115.636719 88 C 118.046875 88 120 86.210938 120 84 L 120 48 C 120 45.789062 118.046875 44 115.636719 44 L 53.363281 44 C 50.953125 44 49 45.789062 49 48 L 49 84 C 49 86.210938 50.953125 88 53.363281 88 Z M 53.363281 88 "/>
<path style=" stroke:none;fill-rule:nonzero;fill:url(#linear11);" d="M 116 86 L 53 86 C 51.894531 86 51 85.105469 51 84 L 51 48 C 51 46.894531 51.894531 46 53 46 L 116 46 C 117.105469 46 118 46.894531 118 48 L 118 84 C 118 85.105469 117.105469 86 116 86 Z M 116 86 "/>
<g clip-path="url(#clip5)" clip-rule="nonzero">
<g clip-path="url(#clip6)" clip-rule="nonzero">
<path style=" stroke:none;fill-rule:nonzero;fill:rgb(14.117648%,43.529412%,78.823531%);fill-opacity:0.482477;" d="M 116 86 L 53 86 C 51.894531 86 51 85.105469 51 84 L 51 48 C 51 46.894531 51.894531 46 53 46 L 116 46 C 117.105469 46 118 46.894531 118 48 L 118 84 C 118 85.105469 117.105469 86 116 86 Z M 116 86 "/>
</g>
</g>
</g>
</svg>
