<?xml version="1.0" encoding="UTF-8"?>
<svg width="128px" height="128px" viewBox="0 0 128 128" xmlns="http://www.w3.org/2000/svg">
 <linearGradient id="a" x1="39.366" x2="39.366" y1="8" y2="120.75" gradientUnits="userSpaceOnUse">
  <stop stop-color="#edece9" offset="0"/>
  <stop stop-color="#fff" offset="1"/>
 </linearGradient>
 <radialGradient id="b" cx="285.13" cy="39.756" r="160" gradientTransform="matrix(.050452 .27802 -.49916 .069907 61.286 -14.534)" gradientUnits="userSpaceOnUse">
  <stop stop-color="#dc8add" offset="0"/>
  <stop stop-color="#813d9c" offset="1"/>
 </radialGradient>
 <filter id="c" x="0%" y="0%" width="100%" height="100%">
  <feColorMatrix in="SourceGraphic" values="0 0 0 0 1 0 0 0 0 1 0 0 0 0 1 0 0 0 1 0"/>
 </filter>
 <mask id="d">
  <g filter="url(#c)">
   <rect width="128" height="128" fill-opacity=".1"/>
  </g>
 </mask>
 <clipPath id="e">
  <rect width="192" height="152"/>
 </clipPath>
 <mask id="f">
  <g filter="url(#c)">
   <rect width="128" height="128" fill-opacity=".1"/>
  </g>
 </mask>
 <clipPath id="g">
  <rect width="192" height="152"/>
 </clipPath>
 <radialGradient id="h" cx="399.44" cy="227.13" r="64" gradientTransform="matrix(.68157 -.68157 .013811 .013811 -179.35 377.07)" gradientUnits="userSpaceOnUse">
  <stop stop-color="#d5d4cf" offset="0"/>
  <stop stop-color="#f6f5f4" offset="1"/>
 </radialGradient>
 <path d="m28.008 8h71.984c4.4375 0 8.0117 3.5703 8.0078 8.0078l-0.09375 80.094-24.02 24.027h-55.754c-4.4336 0-8-3.5703-8.0078-8.0078l-0.125-96.113c-0.007812-4.4375 3.5703-8.0078 8.0078-8.0078z" fill="url(#a)"/>
 <path d="m27.867 16h72.062v84.125l-14.25 11.875h-57.812z" fill="url(#b)"/>
 <path d="m94.527 39.699c-11.695-1.4844-19.336 1.0195-25.879 4.418 6.6484-8.3672 14.945-10.984 25.879-4.418z" fill="#12121c" fill-rule="evenodd"/>
 <path d="m30.578 45.379c11.121-3.875 19.125-3.0117 26.242-1.0469-8.2773-6.8008-16.945-7.6406-26.242 1.0469z" fill="#12121c" fill-rule="evenodd"/>
 <g transform="translate(-8 -16)" clip-path="url(#e)" mask="url(#d)">
  <path d="m102.53 57.355c-11.695-1.4844-19.336 1.0195-25.879 4.418 6.6484-8.3672 14.945-10.984 25.879-4.418z" fill="#12121c" fill-rule="evenodd"/>
 </g>
 <g transform="translate(-8 -16)" clip-path="url(#g)" mask="url(#f)">
  <path d="m38.578 63.035c11.121-3.875 19.125-3.0156 26.242-1.0469-8.2773-6.8008-16.945-7.6406-26.242 1.0469z" fill="#12121c" fill-rule="evenodd"/>
 </g>
 <path d="m99.93 50.609c-28.152 14.398-55 13.91-72.312 11.117v13.668c28.047 20.363 53.246 10.902 72.312-5.2617z" fill="#c0bfbc" fill-rule="evenodd"/>
 <path d="m99.93 50.605c-2.4883 1.2734-4.9688 2.4219-7.4336 3.4727 1.0586 3.668 4.9766 16.23 5.4336 17.695 0.67187-0.54297 1.3438-1.082 2-1.6406zm-9.1992 4.2148c-3.3594 1.3672-6.6875 2.5234-9.9648 3.5156-0.26562 2.3828 3.7461 17.125 4.9961 21.641 4.2656-2.3242 8.3125-5.1133 12.141-8.1875-0.73438-2.1875-4.8281-14.25-7.1719-16.969zm-11.863 4.0781c-3.8359 1.0898-7.5977 1.9414-11.27 2.5938-0.078125 5.1367 1.7891 20.203 2.332 24.473 5.5234-1.1641 10.805-3.2578 15.805-5.9766-1.2734-4.418-5.4102-18.645-6.8672-21.09zm-8.9375 27.066c-0.55469-4.2852-2.6289-19.648-4.375-24.141-4.3867 0.69922-8.6289 1.1211-12.691 1.3203-1.2812 3.8398-1.4062 18.941-1.418 23.047 6.4102 1.1992 12.582 1.0156 18.484-0.22656zm-18.484 0.22656c-0.003906-4.0547-0.066406-18.598-0.66797-22.957-4.0391 0.125-7.875 0.035156-11.488-0.19531-1.375 3.0508-2.5547 13.301-3.0273 17.754 5.1836 2.7266 10.254 4.4766 15.184 5.3984zm-23.828-24.473v13.676c2.8984 2.1094 5.7656 3.8906 8.6016 5.3828 0.36719-4.3984 1.1836-14.492 1.2461-17.875-3.5391-0.28125-6.8398-0.69922-9.8477-1.1836z" fill="#fff" fill-rule="evenodd"/>
 <path d="m92 96c-4.4336 0-8 3.5664-8 8v16l24-24z" fill="url(#h)"/>
</svg>
