<?xml version="1.0" encoding="UTF-8"?>
<svg id="svg11300" width="128" height="128" style="enable-background:new" version="1.0" viewBox="0 0 128 128" xmlns="http://www.w3.org/2000/svg" xmlns:cc="http://creativecommons.org/ns#" xmlns:dc="http://purl.org/dc/elements/1.1/" xmlns:rdf="http://www.w3.org/1999/02/22-rdf-syntax-ns#" xmlns:xlink="http://www.w3.org/1999/xlink">
 <title id="title4162">Adwaita Icon Template</title>
 <defs id="defs3">
  <linearGradient id="linearGradient1098" x1="13.916" x2="116" y1="264" y2="264" gradientTransform="matrix(1.1538 0 0 1.0345 -9.846 -6.0655)" gradientUnits="userSpaceOnUse">
   <stop id="stop1092" style="stop-color:#e5a50a" offset="0"/>
   <stop id="stop1100" style="stop-color:#f8e45c" offset=".25551"/>
   <stop id="stop1094" style="stop-color:#e5a50a" offset="1"/>
  </linearGradient>
  <linearGradient id="linearGradient1108" x1="12" x2="19.416" y1="251.71" y2="251.71" gradientTransform="matrix(1.1538 0 0 1.0345 -9.846 -6.0655)" gradientUnits="userSpaceOnUse">
   <stop id="stop1102" style="stop-color:#26a269" offset="0"/>
   <stop id="stop1104" style="stop-color:#2ec27e" offset="1"/>
  </linearGradient>
 </defs>
 <metadata id="metadata4">
  <rdf:RDF>
   <cc:Work rdf:about="">
    <dc:format>image/svg+xml</dc:format>
    <dc:type rdf:resource="http://purl.org/dc/dcmitype/StillImage"/>
    <dc:creator>
     <cc:Agent>
      <dc:title>GNOME Design Team</dc:title>
     </cc:Agent>
    </dc:creator>
    <dc:source/>
    <cc:license rdf:resource="http://creativecommons.org/licenses/by-sa/4.0/"/>
    <dc:title>Adwaita Icon Template</dc:title>
    <dc:subject>
     <rdf:Bag/>
    </dc:subject>
    <dc:date/>
    <dc:rights>
     <cc:Agent>
      <dc:title/>
     </cc:Agent>
    </dc:rights>
    <dc:publisher>
     <cc:Agent>
      <dc:title/>
     </cc:Agent>
    </dc:publisher>
    <dc:identifier/>
    <dc:relation/>
    <dc:language/>
    <dc:coverage/>
    <dc:description/>
    <dc:contributor>
     <cc:Agent>
      <dc:title/>
     </cc:Agent>
    </dc:contributor>
   </cc:Work>
   <cc:License rdf:about="http://creativecommons.org/licenses/by-sa/4.0/">
    <cc:permits rdf:resource="http://creativecommons.org/ns#Reproduction"/>
    <cc:permits rdf:resource="http://creativecommons.org/ns#Distribution"/>
    <cc:requires rdf:resource="http://creativecommons.org/ns#Notice"/>
    <cc:requires rdf:resource="http://creativecommons.org/ns#Attribution"/>
    <cc:permits rdf:resource="http://creativecommons.org/ns#DerivativeWorks"/>
    <cc:requires rdf:resource="http://creativecommons.org/ns#ShareAlike"/>
   </cc:License>
  </rdf:RDF>
 </metadata>
 <g id="layer1" transform="translate(0,-172)">
  <g id="layer9">
   <path id="path866-7-6-2-1-2-0" d="m4.0001 231.86v10.345h0.0045c-0.00138 12.646 4.9672 24.889 14.033 34.578l6e-6 -10.345c-2.6508-2.8328 1.7368-12.742-0.19156-15.957-4.667-7.7826-13.843-9.6715-13.842-18.62z" style="enable-background:new;fill:url(#linearGradient1108)"/>
   <path id="path866-7-6-2-1-7" d="m18.038 276.78 45.962-34.578v-14.482l-45.962 34.578z" style="enable-background:new;fill:#26a269"/>
   <path id="path866-7-6" d="m18.037 266.44c-14.988-16.014-18.27-38.364-8.4158-57.31 9.8546-18.947 31.061-31.059 54.378-31.059l13.846 28.965-13.846 24.827z" style="enable-background:new;fill:#57e389"/>
   <rect id="rect875" x="64" y="229.79" width="60" height="13.655" style="enable-background:new;fill:#1a5fb4"/>
   <path id="path868" d="m64 176a60 53.792 0 0 1 60 53.792h-60z" style="enable-background:new;fill:#62a0ea"/>
   <path id="path886-3" d="m124 238.07c-0.0173 1.3814-0.094 2.7617-0.22987 4.1379 0.13587-1.3761 0.21254-2.7564 0.22987-4.1379zm-0.22987 4.1379c-1.8024 21.031-23.824 17.594-45.924 24.827-23.702 7.7348-43.594 22.936-59.808 5.6128v4.1379c16.214 17.323 42.781 23.704 66.484 15.97 23.702-7.7344 39.478-27.933 39.479-50.547z" style="enable-background:new;fill:url(#linearGradient1098)"/>
   <path id="circle984" d="m124 238.07c0 22.614-15.776 42.814-39.479 50.548-23.703 7.7345-50.27 1.3523-66.484-15.971l45.963-34.577z" style="enable-background:new;fill:#f9f06b"/>
  </g>
 </g>
</svg>
